<svg width="640" height="640" viewBox="0 0 640 640" fill="none" xmlns="http://www.w3.org/2000/svg">
<path d="M461.067 110.4L459.2 211.467C458.933 225.333 467.733 243.733 478.933 252L545.067 302.133C587.467 334.133 580.533 373.333 529.867 389.333L443.733 416.267C429.333 420.8 414.133 436.533 410.4 451.2L389.867 529.6C373.6 591.467 333.067 597.6 299.467 543.2L252.533 467.2C244 453.333 223.733 442.933 207.733 443.733L118.667 448.267C54.9333 451.467 36.8 414.667 78.4 366.133L131.2 304.8C141.067 293.333 145.6 272 141.067 257.6L113.867 171.2C98.1333 120.533 126.4 92.5334 176.8 109.067L255.467 134.933C268.8 139.2 288.8 136.267 300 128L382.133 68.8001C426.667 37.0668 462.133 55.7334 461.067 110.4Z" fill="#171717"/>
<path d="M571.733 545.867L490.933 465.067C483.2 457.333 470.4 457.333 462.667 465.067C454.933 472.8 454.933 485.6 462.667 493.333L543.467 574.133C547.467 578.133 552.533 580 557.6 580C562.667 580 567.733 578.133 571.733 574.133C579.467 566.4 579.467 553.6 571.733 545.867Z" fill="#171717"/>
</svg>
